# xmcd CD database file
#
# Track frame offsets:
#	150
#	20480
#	65550
#	104782
#	150038
#	178529
#
# Disc length: 2686 seconds
#
# Revision: 0
# Processed by: cddbd v1.4PL0 Copyright (c) Steve Scherf et al.
# Submitted via: Feurio! 1.63 - http://www.feurio.com
#
DISCID=440a7c06
DTITLE=Susan Tedeschi - Norfolk,VA 4/9/03 Disc 2
DYEAR=1900
DGENRE=Blues
TTITLE0=I Fell In Love
TTITLE1=Hampmotized
TTITLE2=Lost Lover Blues
TTITLE3=It Hurt So Bad /Applause
TTITLE4=E: Wrapped In The Arms of Another
TTITLE5=Love's In Need Of Love Today
EXTD=
EXTT0=
EXTT1=
EXTT2=
EXTT3=
EXTT4=
EXTT5=
PLAYORDER=
